HIERARCHY
ROOT hip
{
  OFFSET 0 0 0
  CHANNELS 6 Xposition Yposition Zposition Zrotation Yrotation Xrotation
  JOINT abdomen
  {
    OFFSET 0 20.6881 -0.73152
    CHANNELS 3 Zrotation Xrotation Yrotation
    JOINT chest
    {
      OFFSET 0 11.7043 -0.48768
      CHANNELS 3 Zrotation Xrotation Yrotation
      JOINT neck
      {
        OFFSET 0 22.1894 -2.19456
        CHANNELS 3 Zrotation Xrotation Yrotation
        JOINT head
        {
          OFFSET -0.24384 7.07133 1.2192
          CHANNELS 3 Zrotation Xrotation Yrotation
          JOINT leftEye
          {
            OFFSET 4.14528 8.04674 8.04672
            CHANNELS 3 Zrotation Xrotation Yrotation
            End Site
            {
              OFFSET 1 0 0
            }
          }
          JOINT rightEye
          {
            OFFSET -3.6576 8.04674 8.04672
            CHANNELS 3 Zrotation Xrotation Yrotation
            End Site
            {
              OFFSET 1 0 0
            }
          }
        }
      }
      JOINT rCollar
      {
        OFFSET -2.68224 19.2634 -4.8768
        CHANNELS 3 Zrotation Xrotation Yrotation
        JOINT rShldr
        {
          OFFSET -8.77824 -1.95073 1.46304
          CHANNELS 3 Zrotation Xrotation Yrotation
          JOINT rForeArm
          {
            OFFSET -28.1742 -1.7115 0.48768
            CHANNELS 3 Zrotation Xrotation Yrotation
            JOINT rHand
            {
              OFFSET -22.5879 0.773209 7.07136
              CHANNELS 3 Zrotation Xrotation Yrotation
              JOINT rThumb1
              {
                OFFSET -1.2192 -0.487915 3.41376
                CHANNELS 3 Zrotation Xrotation Yrotation
                JOINT rThumb2
                {
                  OFFSET -3.37035 -0.52449 3.41376
                  CHANNELS 3 Zrotation Xrotation Yrotation
                  End Site
                  {
                    OFFSET -1.78271 -1.18214 1.43049
                  }
                }
              }
              JOINT rIndex1
              {
                OFFSET -7.75947 0.938293 5.60832
                CHANNELS 3 Zrotation Xrotation Yrotation
                JOINT rIndex2
                {
                  OFFSET -2.54057 -0.884171 1.56538
                  CHANNELS 3 Zrotation Xrotation Yrotation
                  End Site
                  {
                    OFFSET -1.62519 -0.234802 1.16502
                  }
                }
              }
              JOINT rMid1
              {
                OFFSET -8.24714 1.18213 3.41376
                CHANNELS 3 Zrotation Xrotation Yrotation
                JOINT rMid2
                {
                  OFFSET -3.10165 -0.590103 1.0647
                  CHANNELS 3 Zrotation Xrotation Yrotation
                  End Site
                  {
                    OFFSET -2.48547 -0.328903 0.83742
                  }
                }
              }
              JOINT rRing1
              {
                OFFSET -8.82822 0.546677 1.51678
                CHANNELS 3 Zrotation Xrotation Yrotation
                JOINT rRing2
                {
                  OFFSET -2.60934 -0.819778 -0.0198488
                  CHANNELS 3 Zrotation Xrotation Yrotation
                  End Site
                  {
                    OFFSET -2.33842 -0.294052 0.168128
                  }
                }
              }
              JOINT rPinky1
              {
                OFFSET -8.27202 -0.0477905 -0.4584
                CHANNELS 3 Zrotation Xrotation Yrotation
                JOINT rPinky2
                {
                  OFFSET -1.82734 -0.647385 -0.700984
                  CHANNELS 3 Zrotation Xrotation Yrotation
                  End Site
                  {
                    OFFSET -1.69225 -0.51767 -0.607171
                  }
                }
              }
            }
          }
        }
      }
      JOINT lCollar
      {
        OFFSET 2.68224 19.2634 -4.8768
        CHANNELS 3 Zrotation Xrotation Yrotation
        JOINT lShldr
        {
          OFFSET 8.77824 -1.95073 1.46304
          CHANNELS 3 Zrotation Xrotation Yrotation
          JOINT lForeArm
          {
            OFFSET 28.1742 -1.7115 0.48768
            CHANNELS 3 Zrotation Xrotation Yrotation
            JOINT lHand
            {
              OFFSET 22.5879 0.773209 7.07136
              CHANNELS 3 Zrotation Xrotation Yrotation
              JOINT lThumb1
              {
                OFFSET 1.2192 -0.487915 3.41376
                CHANNELS 3 Zrotation Xrotation Yrotation
                JOINT lThumb2
                {
                  OFFSET 3.37035 -0.52449 3.41376
                  CHANNELS 3 Zrotation Xrotation Yrotation
                  End Site
                  {
                    OFFSET 1.78271 -1.18214 1.43049
                  }
                }
              }
              JOINT lIndex1
              {
                OFFSET 7.75947 0.938293 5.60832
                CHANNELS 3 Zrotation Xrotation Yrotation
                JOINT lIndex2
                {
                  OFFSET 2.54057 -0.884171 1.56538
                  CHANNELS 3 Zrotation Xrotation Yrotation
                  End Site
                  {
                    OFFSET 1.62519 -0.234802 1.16502
                  }
                }
              }
              JOINT lMid1
              {
                OFFSET 8.24714 1.18213 3.41376
                CHANNELS 3 Zrotation Xrotation Yrotation
                JOINT lMid2
                {
                  OFFSET 3.10165 -0.590103 1.0647
                  CHANNELS 3 Zrotation Xrotation Yrotation
                  End Site
                  {
                    OFFSET 2.48547 -0.328903 0.83742
                  }
                }
              }
              JOINT lRing1
              {
                OFFSET 8.82822 0.546677 1.51678
                CHANNELS 3 Zrotation Xrotation Yrotation
                JOINT lRing2
                {
                  OFFSET 2.60934 -0.819778 -0.0198488
                  CHANNELS 3 Zrotation Xrotation Yrotation
                  End Site
                  {
                    OFFSET 2.33842 -0.294052 0.168128
                  }
                }
              }
              JOINT lPinky1
              {
                OFFSET 8.27202 -0.0477905 -0.4584
                CHANNELS 3 Zrotation Xrotation Yrotation
                JOINT lPinky2
                {
                  OFFSET 1.82734 -0.647385 -0.700984
                  CHANNELS 3 Zrotation Xrotation Yrotation
                  End Site
                  {
                    OFFSET 1.69225 -0.51767 -0.607171
                  }
                }
              }
            }
          }
        }
      }
    }
  }
  JOINT rButtock
  {
    OFFSET -8.77824 4.35084 1.2192
    CHANNELS 3 Zrotation Xrotation Yrotation
    JOINT rThigh
    {
      OFFSET 0 -1.70687 -2.19456
      CHANNELS 3 Zrotation Xrotation Yrotation
      JOINT rShin
      {
        OFFSET 0 -36.8199 0.73152
        CHANNELS 3 Zrotation Xrotation Yrotation
        JOINT rFoot
        {
          OFFSET 0.73152 -45.1104 -5.12064
          CHANNELS 3 Zrotation Xrotation Yrotation
          End Site
          {
            OFFSET -1.1221 -3.69964 12.103
          }
        }
      }
    }
  }
  JOINT lButtock
  {
    OFFSET 8.77824 4.35084 1.2192
    CHANNELS 3 Zrotation Xrotation Yrotation
    JOINT lThigh
    {
      OFFSET 0 -1.70687 -2.19456
      CHANNELS 3 Zrotation Xrotation Yrotation
      JOINT lShin
      {
        OFFSET 0 -36.8199 0.73152
        CHANNELS 3 Zrotation Xrotation Yrotation
        JOINT lFoot
        {
          OFFSET -0.73152 -45.1104 -5.12064
          CHANNELS 3 Zrotation Xrotation Yrotation
          End Site
          {
            OFFSET 1.1221 -3.69964 12.103
          }
        }
      }
    }
  }
}
MOTION
Frames:	9
Frame Time:	0.00833333
-2.40369 89.2429 46.0721 5.7322 1.7108 5.644 -2.41074 12.4548 -5.73435 3.61093 -8.60252 -1.28371 -2.30246 -2.20829 -2.50489 2.7482 -12.2751 -3.97218 -0.0 0.0 0.0 -0.0 0.0 0.0 3.68215e-14 -7.67221e-14 -2.73212e-14 103.884 28.9143 -42.061 -28.3883 -37.2165 79.0686 -0.362562 -16.8757 -2.44352 -6.15805e-10 1.03576e-09 -1.55906e-09 -1.04097e-09 1.74287e-09 -2.70685e-09 -6.15804e-10 1.03577e-09 -1.55909e-09 7.73091 5.47488 0.417314 -6.15806e-10 1.03576e-09 -1.55906e-09 2.90554 0.965183 0.102902 -6.15797e-10 1.03576e-09 -1.55906e-09 10.2786 0.731801 0.0259123 -6.15808e-10 1.03576e-09 -1.55905e-09 2.22167 -0.733487 -0.20892 3.68217e-14 -7.67149e-14 -2.74878e-14 -83.7549 42.7956 9.40095 22.4589 -51.1343 -107.845 1.97164 -36.5109 5.97181 1.75859e-09 -4.11133e-09 4.14668e-10 3.03101e-09 -6.74859e-09 7.66038e-10 1.75858e-09 -4.11131e-09 4.14678e-10 -7.73091 5.47488 -0.417314 1.75858e-09 -4.1113e-09 4.14674e-10 -2.90554 0.965183 -0.102902 1.75858e-09 -4.11133e-09 4.14666e-10 -10.2786 0.731801 -0.0259123 1.75859e-09 -4.11133e-09 4.1466e-10 -2.22167 -0.733487 0.20892 -2.03217e-16 0.0 -3.88251e-19 1.6421 -43.9629 6.24566 -0.23623 27.943 -0.273675 1.00853 11.3974 -10.9829 2.03217e-16 0.0 3.88251e-19 -8.31061 7.67449 -6.01072 0.237677 39.4673 -1.29554 9.67423 33.1892 -20.8033
-2.46562 89.0362 48.7524 5.4228 1.5278 5.4973 -1.84626 12.6953 -5.67418 3.55233 -8.275 -1.24254 -2.38003 -2.27486 -2.59895 2.77888 -12.6532 -4.12272 -0.0 0.0 0.0 -0.0 0.0 0.0 2.99709e-14 -8.58794e-14 -3.56818e-14 103.168 28.6905 -40.7198 -28.4024 -36.9685 78.642 -0.356925 -16.7495 -2.42414 -6.13604e-10 1.07179e-09 -1.57522e-09 -1.03674e-09 1.80466e-09 -2.73474e-09 -6.13604e-10 1.0718e-09 -1.57525e-09 7.73091 5.47488 0.417314 -6.13605e-10 1.07179e-09 -1.57522e-09 2.90554 0.965183 0.102902 -6.13596e-10 1.07179e-09 -1.57522e-09 10.2786 0.731801 0.0259123 -6.13607e-10 1.07179e-09 -1.5752e-09 2.22167 -0.733487 -0.20892 3.00143e-14 -8.58703e-14 -3.58309e-14 -84.4 42.6295 9.84765 23.138 -50.4342 -105.906 1.95455 -36.3812 5.94332 1.82935e-09 -5.73779e-09 5.85244e-10 3.14855e-09 -9.53359e-09 1.06335e-09 1.82934e-09 -5.73777e-09 5.85254e-10 -7.73091 5.47488 -0.417314 1.82935e-09 -5.73777e-09 5.85251e-10 -2.90554 0.965183 -0.102902 1.82935e-09 -5.7378e-09 5.85243e-10 -10.2786 0.731801 -0.0259123 1.82935e-09 -5.7378e-09 5.85238e-10 -2.22167 -0.733487 0.20892 -2.03217e-16 0.0 -3.88251e-19 2.07192 -43.1176 6.64722 -0.24445 26.6423 -0.438287 1.16675 11.5552 -11.68 2.03217e-16 0.0 3.88251e-19 -7.97684 6.40283 -6.07112 0.311745 43.0573 -1.33304 9.49567 33.7985 -20.4365
-2.45213 88.6533 51.4687 5.2163 1.3203 5.213 -1.00045 12.9956 -5.53724 3.41592 -8.03165 -1.16685 -2.43299 -2.25708 -2.66595 2.83543 -12.9397 -4.2285 -0.0 0.0 0.0 -0.0 0.0 0.0 3.03725e-15 -5.67953e-14 -2.7668e-14 102.488 28.6552 -39.4197 -28.4167 -36.687 78.1535 -0.349242 -16.575 -2.39739 -4.28699e-10 8.60625e-10 -1.00955e-09 -7.25475e-10 1.45707e-09 -1.75347e-09 -4.28699e-10 8.60632e-10 -1.00958e-09 7.73091 5.47488 0.417314 -4.287e-10 8.60628e-10 -1.00955e-09 2.90554 0.965183 0.102902 -4.28691e-10 8.60627e-10 -1.00955e-09 10.2786 0.731801 0.0259123 -4.28702e-10 8.60626e-10 -1.00954e-09 2.22167 -0.733487 -0.20892 3.10387e-15 -5.67848e-14 -2.7838e-14 -85.0177 42.2552 10.2823 23.8689 -49.6114 -103.71 1.92928 -36.1854 5.90069 1.2431e-09 -9.63721e-09 3.17595e-10 2.14211e-09 -1.64695e-08 5.85234e-10 1.24309e-09 -9.63719e-09 3.17603e-10 -7.73091 5.47488 -0.417314 1.2431e-09 -9.63719e-09 3.17599e-10 -2.90554 0.965183 -0.102902 1.24309e-09 -9.63721e-09 3.17593e-10 -10.2786 0.731801 -0.0259123 1.2431e-09 -9.63721e-09 3.17588e-10 -2.22167 -0.733487 0.20892 -2.03217e-16 0.0 -3.88251e-19 2.8389 -42.4248 6.66135 -0.25931 26.0375 -0.588466 1.29101 12.1402 -11.4689 2.03217e-16 0.0 3.88251e-19 -7.40971 5.01073 -5.91941 0.404497 46.8988 -1.4144 9.54154 34.7018 -20.3164
-2.43416 88.1378 54.3032 4.9213 1.053 4.7615 0.0612706 13.3492 -5.32435 3.20698 -7.83295 -1.06159 -2.46978 -2.17694 -2.71964 2.91444 -13.1718 -4.31314 -0.0 0.0 0.0 -0.0 0.0 0.0 -3.86312e-14 -5.27323e-15 -9.47023e-15 101.801 28.7582 -38.0784 -28.4278 -36.3597 77.5974 -0.340597 -16.3753 -2.36686 -1.1947e-10 4.89155e-10 -6.92147e-11 -2.04953e-10 8.43906e-10 -1.2223e-10 -1.19471e-10 4.89161e-10 -6.92375e-11 7.73091 5.47488 0.417314 -1.19471e-10 4.89157e-10 -6.92169e-11 2.90554 0.965183 0.102902 -1.19463e-10 4.89157e-10 -6.92141e-11 10.2786 0.731801 0.0259123 -1.19474e-10 4.89156e-10 -6.92028e-11 2.22167 -0.733487 -0.20892 -3.85526e-14 -5.26164e-15 -9.68765e-15 -85.6076 41.7267 10.6824 24.6033 -48.6323 -101.338 1.89486 -35.9136 5.84203 2.11637e-10 -1.5112e-08 -2.26895e-10 3.73482e-10 -2.62761e-08 -3.83592e-10 2.11633e-10 -1.5112e-08 -2.26889e-10 -7.73091 5.47488 -0.417314 2.11637e-10 -1.5112e-08 -2.26895e-10 -2.90554 0.965183 -0.102902 2.11634e-10 -1.5112e-08 -2.26896e-10 -10.2786 0.731801 -0.0259123 2.11641e-10 -1.5112e-08 -2.26904e-10 -2.22167 -0.733487 0.20892 -2.03217e-16 0.0 -3.88251e-19 3.89448 -41.8636 6.44367 -0.270764 26.0959 -0.733427 1.36976 13.0211 -10.6302 2.03217e-16 0.0 3.88251e-19 -6.64504 3.46541 -5.58276 0.529542 51.0307 -1.5443 9.73252 35.83 -20.3268
-2.5411 87.538 56.9889 4.2866 0.6114 4.4379 1.13882 13.7443 -5.02758 2.98514 -7.69214 -0.92878 -2.49642 -2.08742 -2.76192 2.99894 -13.3303 -4.37923 -0.0 0.0 0.0 -0.0 0.0 0.0 -7.59641e-14 4.96782e-14 7.16362e-15 101.115 28.9856 -36.7033 -28.433 -36.0215 77.0357 -0.334177 -16.2245 -2.34384 2.10608e-10 3.66385e-11 9.52835e-10 3.50518e-10 9.34614e-11 1.65055e-09 2.10608e-10 3.66447e-11 9.52816e-10 7.73091 5.47488 0.417314 2.10608e-10 3.66412e-11 9.52832e-10 2.90554 0.965183 0.102902 2.10614e-10 3.66406e-11 9.52834e-10 10.2786 0.731801 0.0259123 2.10604e-10 3.66401e-11 9.52841e-10 2.22167 -0.733487 -0.20892 -7.58833e-14 4.96902e-14 6.89573e-15 -86.2081 41.1241 11.1179 25.2768 -47.5758 -98.9614 1.85348 -35.5824 5.77107 -8.60234e-10 -2.04427e-08 -8.56882e-10 -1.4627e-09 -3.58104e-08 -1.50135e-09 -8.60236e-10 -2.04427e-08 -8.56878e-10 -7.73091 5.47488 -0.417314 -8.60233e-10 -2.04428e-08 -8.56886e-10 -2.90554 0.965183 -0.102902 -8.60237e-10 -2.04428e-08 -8.56883e-10 -10.2786 0.731801 -0.0259123 -8.6023e-10 -2.04427e-08 -8.56894e-10 -2.22167 -0.733487 0.20892 -2.03217e-16 0.0 -3.88251e-19 5.07924 -41.4291 6.11886 -0.284977 26.8082 -0.855513 1.31469 13.5923 -9.46484 2.03217e-16 0.0 3.88251e-19 -5.77046 1.7936 -5.05195 0.697647 55.2984 -1.72252 9.97323 36.9859 -20.4072
-2.7726 86.8046 59.5548 3.3424 -0.041 4.1652 2.03179 14.169 -4.63885 2.81032 -7.62245 -0.770378 -2.51913 -2.04147 -2.79468 3.07186 -13.3962 -4.42938 -0.0 0.0 0.0 -0.0 0.0 0.0 -8.98909e-14 8.90503e-14 1.04859e-14 100.437 29.324 -35.3033 -28.4334 -35.7104 76.5252 -0.332948 -16.1967 -2.33958 4.58061e-10 -4.17665e-10 1.76364e-09 7.6663e-10 -6.6596e-10 3.05644e-09 4.58061e-10 -4.1766e-10 1.76362e-09 7.73091 5.47488 0.417314 4.5806e-10 -4.17663e-10 1.76363e-09 2.90554 0.965183 0.102902 4.58066e-10 -4.17663e-10 1.76363e-09 10.2786 0.731801 0.0259123 4.58056e-10 -4.17664e-10 1.76364e-09 2.22167 -0.733487 -0.20892 -8.98164e-14 8.90617e-14 1.01877e-14 -86.8573 40.5264 11.6582 25.8592 -46.54 -96.7046 1.80722 -35.2083 5.69144 -1.56772e-09 -2.391e-08 -1.38103e-09 -2.67181e-09 -4.19296e-08 -2.42626e-09 -1.56772e-09 -2.391e-08 -1.38102e-09 -7.73091 5.47488 -0.417314 -1.56772e-09 -2.391e-08 -1.38103e-09 -2.90554 0.965183 -0.102902 -1.56772e-09 -2.391e-08 -1.38103e-09 -10.2786 0.731801 -0.0259123 -1.56772e-09 -2.391e-08 -1.38104e-09 -2.22167 -0.733487 0.20892 -2.03217e-16 0.0 -3.88251e-19 6.22616 -41.1176 5.80665 -0.310512 28.1654 -0.936377 1.10043 13.2407 -8.28469 2.03217e-16 0.0 3.88251e-19 -4.87077 0.0221233 -4.31649 0.917055 59.5475 -1.94745 10.162 37.9721 -20.488
-2.91055 86.0096 62.2495 2.7194 -0.8951 3.71 2.64757 14.6312 -4.12457 2.70423 -7.66363 -0.576517 -2.54218 -2.00289 -2.81112 3.1454 -13.3344 -4.4492 -0.0 0.0 0.0 -0.0 0.0 0.0 -6.64564e-14 1.08482e-13 -1.01819e-14 99.7959 29.7945 -33.9571 -28.4318 -35.4365 76.0723 -0.340278 -16.3731 -2.36644 6.13949e-10 -9.71071e-10 2.38185e-09 1.02801e-09 -1.60123e-09 4.12735e-09 6.13951e-10 -9.71068e-10 2.38183e-09 7.73091 5.47488 0.417314 6.13949e-10 -9.71069e-10 2.38184e-09 2.90554 0.965183 0.102902 6.13953e-10 -9.71069e-10 2.38184e-09 10.2786 0.731801 0.0259123 6.13944e-10 -9.7107e-10 2.38185e-09 2.22167 -0.733487 -0.20892 -6.64025e-14 1.08492e-13 -1.0484e-14 -87.6365 39.9274 12.4136 26.3509 -45.5476 -94.6128 1.74891 -34.7302 5.59049 -1.78248e-09 -2.51964e-08 -1.8422e-09 -3.03085e-09 -4.39629e-08 -3.22883e-09 -1.78248e-09 -2.51964e-08 -1.84219e-09 -7.73091 5.47488 -0.417314 -1.78248e-09 -2.51964e-08 -1.8422e-09 -2.90554 0.965183 -0.102902 -1.78249e-09 -2.51964e-08 -1.8422e-09 -10.2786 0.731801 -0.0259123 -1.78248e-09 -2.51964e-08 -1.84221e-09 -2.22167 -0.733487 0.20892 -2.03217e-16 0.0 -3.88251e-19 7.23923 -41.0074 5.35931 -0.357289 30.4201 -0.967915 0.714616 11.5927 -6.8618 2.03217e-16 0.0 3.88251e-19 -3.96176 -1.82668 -3.28792 1.20776 63.8009 -2.23889 10.3028 38.8083 -20.5578
-2.97485 85.232 65.0215 2.3466 -1.7671 3.2956 3.10006 15.1328 -3.49801 2.63437 -7.79648 -0.349425 -2.56147 -1.9602 -2.81268 3.22341 -13.1651 -4.44224 -0.0 0.0 0.0 -0.0 0.0 0.0 -1.87882e-14 1.17876e-13 -4.6059e-14 99.1593 30.4055 -32.6282 -28.4289 -35.1811 75.6465 -0.35409 -16.6937 -2.41547 7.27241e-10 -1.62637e-09 2.93145e-09 1.21724e-09 -2.71374e-09 5.07861e-09 7.27246e-10 -1.62637e-09 2.93143e-09 7.73091 5.47488 0.417314 7.27241e-10 -1.62637e-09 2.93145e-09 2.90554 0.965183 0.102902 7.27245e-10 -1.62637e-09 2.93145e-09 10.2786 0.731801 0.0259123 7.27235e-10 -1.62637e-09 2.93145e-09 2.22167 -0.733487 -0.20892 -1.87679e-14 1.17883e-13 -4.6351e-14 -88.4908 39.2911 13.3097 26.7756 -44.5488 -92.6056 1.68164 -34.1609 5.47206 -1.72721e-09 -2.51719e-08 -2.31115e-09 -2.92288e-09 -4.35308e-08 -4.03745e-09 -1.72721e-09 -2.51719e-08 -2.31115e-09 -7.73091 5.47488 -0.417314 -1.72721e-09 -2.51719e-08 -2.31116e-09 -2.90554 0.965183 -0.102902 -1.72721e-09 -2.51719e-08 -2.31115e-09 -10.2786 0.731801 -0.0259123 -1.7272e-09 -2.51719e-08 -2.31116e-09 -2.22167 -0.733487 0.20892 -2.03217e-16 0.0 -3.88251e-19 8.21936 -41.0722 4.76889 -0.420455 33.4924 -0.962053 0.304978 9.02467 -5.16902 2.03217e-16 0.0 3.88251e-19 -2.95154 -3.77336 -1.9971 1.62229 68.1189 -2.65382 10.4413 39.575 -20.65
-3.08576 84.2951 67.6829 1.9855 -2.7377 3.0092 3.50039 15.6528 -2.82172 2.57879 -7.9459 -0.10929 -2.57071 -2.00346 -2.81357 3.27626 -12.9521 -4.43806 -0.0 0.0 0.0 -0.0 0.0 0.0 3.15602e-14 1.19617e-13 -7.97045e-14 98.4499 31.117 -31.1513 -28.4243 -34.9409 75.2463 -0.368783 -17.0205 -2.46571 7.81324e-10 -2.1625e-09 3.27748e-09 1.30699e-09 -3.627e-09 5.67695e-09 7.8133e-10 -2.16251e-09 3.27746e-09 7.73091 5.47488 0.417314 7.81323e-10 -2.1625e-09 3.27748e-09 2.90554 0.965183 0.102902 7.81327e-10 -2.1625e-09 3.27748e-09 10.2786 0.731801 0.0259123 7.81317e-10 -2.1625e-09 3.27749e-09 2.22167 -0.733487 -0.20892 3.15462e-14 1.1962e-13 -7.99771e-14 -89.2633 38.6539 14.1442 27.156 -43.536 -90.5959 1.62113 -33.6283 5.36313 -1.52364e-09 -2.38981e-08 -2.63836e-09 -2.56234e-09 -4.09269e-08 -4.5972e-09 -1.52365e-09 -2.38981e-08 -2.63835e-09 -7.73091 5.47488 -0.417314 -1.52364e-09 -2.38981e-08 -2.63836e-09 -2.90554 0.965183 -0.102902 -1.52365e-09 -2.38981e-08 -2.63836e-09 -10.2786 0.731801 -0.0259123 -1.52364e-09 -2.38981e-08 -2.63837e-09 -2.22167 -0.733487 0.20892 -2.03217e-16 0.0 -3.88251e-19 9.29525 -41.1564 4.36545 -0.490702 36.8738 -0.927613 0.0253723 6.07053 -3.80163 2.03217e-16 0.0 3.88251e-19 -1.77431 -5.85307 -0.610208 2.24554 72.4037 -3.27487 10.5307 40.1663 -20.7527
